# xmcd CD database file
#
# Track frame offsets:
#	150
#	12396
#	27081
#	39340
#	53396
#	61380
#	72575
#	85403
#	99398
#	111291
#	122928
#	132170
#	140451
#	154779
#	166995
#	181584
#	193800
#	208421
#	221222
#	233381
#
# Disc length: 3286 seconds
#
# Revision: 0
# Processed by: cddbd v1.5.2PL0 Copyright (c) Steve Scherf et al.
# Submitted via: jetAudio 7
#
DISCID=1a0cd414
DTITLE=Various Artist - 밤무대 트럼펫 2집
DYEAR=1900
DGENRE=Instrumental
TTITLE0=돌아와요 부산항에
TTITLE1=난 정말 몰랐었네
TTITLE2=울고 넘는 박달재
TTITLE3=애수의 소양곡
TTITLE4=대지의 항구
TTITLE5=이별의 부산 정거장
TTITLE6=물 방아 도는 내력
TTITLE7=나그네 설움
TTITLE8=꿈꾸는 백마강
TTITLE9=목포의 눈물
TTITLE10=감격시대
TTITLE11=무너진 사령탑
TTITLE12=눈물 젖은 두만강
TTITLE13=번지 없는 주막
TTITLE14=선창
TTITLE15=돌아가는 삼각지
TTITLE16=임이라 부르리까
TTITLE17=짝사랑
TTITLE18=홍도야 울지마라
TTITLE19=영등포의 밤
EXTD=
EXTT0=
EXTT1=
EXTT2=
EXTT3=
EXTT4=
EXTT5=
EXTT6=
EXTT7=
EXTT8=
EXTT9=
EXTT10=
EXTT11=
EXTT12=
EXTT13=
EXTT14=
EXTT15=
EXTT16=
EXTT17=
EXTT18=
EXTT19=
PLAYORDER=
